<?xml version="1.0" encoding="utf-8"?>
<!-- Generator: Adobe Illustrator 22.1.0, SVG Export Plug-In . SVG Version: 6.00 Build 0)  -->
<svg version="1.1" id="Layer_1" xmlns="http://www.w3.org/2000/svg" xmlns:xlink="http://www.w3.org/1999/xlink" x="0px" y="0px"
	 viewBox="652 736 695 528" xml:space="preserve">
<style type="text/css">
	.st0{display:none;fill:#3423A6;}
	.st1{fill:#46A29E;}
	.st2{fill:#F7931E;}
	.st3{fill:#1B1464;}
</style>
<g>
	<path class="st1" d="M1308.6,1039.4c-3-81.9-38-155.8-92.8-209.4c-0.3-6.2-3-12.3-8-16.8c-114-102.6-300.4-102.7-415.5-0.1
		c-5,4.5-7.8,10.6-8.1,16.9c-54.9,53.6-89.9,127.5-92.8,209.4c-22.6,7.5-38.9,28.8-38.9,53.9v104.7c0,31.4,25.5,56.9,56.9,56.9h33.1
		c2.4,5.2,7.7,8.8,13.8,8.8h7.6c8.4,0,15.2-6.8,15.2-15.2v-205.6c0-8.4-6.8-15.2-15.2-15.2h-7.6c-6.1,0-11.4,3.6-13.8,8.8h-15.9
		c3.7-70.7,34.2-134.4,81.7-180.9c0.1,0,0.1,0,0.2,0c5.7,0,11.5-2,16.1-6.2c97.2-86.6,254.6-86.7,350.7-0.1
		c4.7,4.2,10.6,6.3,16.4,6.2c47.4,46.6,78,110.3,81.7,181h-15.9c-2.4-5.2-7.7-8.8-13.8-8.8h-7.6c-8.4,0-15.2,6.8-15.2,15.2v205.6
		c0,8.4,6.8,15.2,15.2,15.2h7.6c6.1,0,11.4-3.6,13.8-8.8h33.1c31.4,0,56.9-25.5,56.9-56.9v-104.7
		C1347.5,1068.3,1331.2,1047,1308.6,1039.4z"/>
	<g>
		<rect x="812" y="1068.3" class="st2" width="57" height="15.5"/>
		<rect x="812" y="1092.9" class="st2" width="57" height="15.5"/>
		<rect x="812" y="1117.4" class="st2" width="57" height="15.5"/>
		<rect x="812" y="1142" class="st2" width="57" height="15.5"/>
		<rect x="812" y="1166.5" class="st2" width="57" height="15.5"/>
		<rect x="812" y="1191" class="st2" width="57" height="15.5"/>
		<rect x="812" y="1215.6" class="st2" width="57" height="15.5"/>
		<rect x="812" y="1240.1" class="st2" width="57" height="15.5"/>
	</g>
	<g>
		<rect x="876.6" y="1117.4" class="st2" width="57" height="15.5"/>
		<rect x="876.6" y="1142" class="st2" width="57" height="15.5"/>
		<rect x="876.6" y="1166.5" class="st2" width="57" height="15.5"/>
		<rect x="876.6" y="1191" class="st2" width="57" height="15.5"/>
		<rect x="876.6" y="1215.6" class="st2" width="57" height="15.5"/>
		<rect x="876.6" y="1240.1" class="st2" width="57" height="15.5"/>
	</g>
	<g>
		<rect x="941.3" y="1068.3" class="st2" width="57" height="15.5"/>
		<rect x="941.3" y="1092.9" class="st2" width="57" height="15.5"/>
		<rect x="941.3" y="1117.4" class="st2" width="57" height="15.5"/>
		<rect x="941.3" y="1142" class="st2" width="57" height="15.5"/>
		<rect x="941.3" y="1166.5" class="st2" width="57" height="15.5"/>
		<rect x="941.3" y="1191" class="st2" width="57" height="15.5"/>
		<rect x="941.3" y="1215.6" class="st2" width="57" height="15.5"/>
		<rect x="941.3" y="1240.1" class="st2" width="57" height="15.5"/>
	</g>
	<g>
		<rect x="1005.9" y="1166.5" class="st2" width="57" height="15.5"/>
		<rect x="1005.9" y="1191" class="st2" width="57" height="15.5"/>
		<rect x="1005.9" y="1215.6" class="st2" width="57" height="15.5"/>
		<rect x="1005.9" y="1240.1" class="st2" width="57" height="15.5"/>
	</g>
	<g>
		<rect x="1070.5" y="1068.3" class="st2" width="57" height="15.5"/>
		<rect x="1070.5" y="1092.9" class="st2" width="57" height="15.5"/>
		<rect x="1070.5" y="1117.4" class="st2" width="57" height="15.5"/>
		<rect x="1070.5" y="1142" class="st2" width="57" height="15.5"/>
		<rect x="1070.5" y="1166.5" class="st2" width="57" height="15.5"/>
		<rect x="1070.5" y="1191" class="st2" width="57" height="15.5"/>
		<rect x="1070.5" y="1215.6" class="st2" width="57" height="15.5"/>
		<rect x="1070.5" y="1240.1" class="st2" width="57" height="15.5"/>
	</g>
	<g>
		<rect x="1135.2" y="1191" class="st2" width="57" height="15.5"/>
		<rect x="1135.2" y="1215.6" class="st2" width="57" height="15.5"/>
		<rect x="1135.2" y="1240.1" class="st2" width="57" height="15.5"/>
	</g>
</g>
</svg>
